{"title":"Gods of Egypt 2016 720p HD-TS X264 AC3 HQ Hive-CM8","uid":13732584,"size":3414152092,"categoryP":"video","categoryS":"movies","magnet":"?xt=urn:btih:83d711906b797388bcc3041059bd04dd18a7dad3&amp;dn=Gods+of+Egypt+2016+720p+HD-TS+X264+AC3+HQ+Hive-CM8+++&amp;tr=udp%3A%2F%2Ftracker.leechers-paradise.org%3A6969&amp;tr=udp%3A%2F%2Fzer0day.ch%3A1337&amp;tr=udp%3A%2F%2Fopen.demonii.com%3A1337&amp;tr=udp%3A%2F%2Ftracker.coppersurfer.tk%3A6969&amp;tr=udp%3A%2F%2Fexodus.desync.com%3A6969","seeders":0,"leechers":8,"uploader":"makintos13","files":3,"time":1457024736,"description":"screens:\r\n \nhttp://imgmak.com/KZt\r\n \nhttp://imgmak.com/KZ2\r\n \nhttp://imgmak.com/KZF\r\n \nhttp://imgmak.com/KZi\r\n \nhttp://imgmak.com/KZj\r\n \nhttp://imgmak.com/KZw\r\n\r\n::::::::::::::::::::\r\n\r\nGods.of.Egypt.2016.720p.HD-TS.X264.AC3.HQ.Hive-CM8\r\n\r\nThx Hive\r\n\r\nCM8 Doing It Right The First Time\r\n\r\nSources:\r\n\r\nVideo: 1080P HDCAM Incoming big thx\r\n\r\nAudio: Sweet Direct Line Big Thx to S4NDM4N\r\n\r\n\r\nNotes:\r\n\r\nGot this great cam, quality was amazing, its definately the best cam i have seen so far.\r\nHas no kind of faults, no flicker, nothing cropped, no movements, all bright,nightscenes are good,and no heads in the view\r\nAnother perfect release, best possible Video and best possible Line combined for this blockbuster.\r\nOne good release is the way to go, patience\r\nthx for everyone involved\r\nand nope its not the russian cam floating, its a new one\r\n\r\nEncode:\r\n\r\nVideo was already awesome, rotated,fixed ar and perspective, fixed rgb.\r\nFull Video and Audio, nothing is missing\r\n\r\nAudio was a nice line, sounds perfect,lipsycned it to my video\r\n\r\nthe videoquality speaks for itself, check sample\r\n\r\nwont get better than this till retail\r\nenjoy\r\n\r\nVideo: 1280x688 @bitrate 3500-8000\r\nAudio: Line AC3 2.0 Stereo\r\nSample: yes included\r\n\r\n\r\n \nhttp://www.imdb.com/title/tt2404233/\r\n\r\n\r\nGeneral\r\nComplete name                  : Gods.of.Egypt.2016.720p.HD-TS.X264.AC3.HQ.Hive-CM8.mkv\r\nFormat                         : Matroska\r\nFormat version                 : Version 2\r\nFile size                      : 3.15 GiB\r\nDuration                       : 1h 56mn\r\nOverall bit rate mode          : Variable\r\nOverall bit rate               : 3 860 Kbps\r\nEncoded date                   : UTC 2016-03-01 21:13:47\r\nWriting application            : mkvmerge v5.6.0 ('Kenya Kane') built on May 27 2012 16:44:04\r\nWriting library                : libebml v1.2.3 + libmatroska v1.3.0\r\n\r\nVideo\r\nID                             : 1\r\nFormat                         : AVC\r\nFormat/Info                    : Advanced Video Codec\r\nFormat profile                 :   \r\nFormat settings, CABAC         : Yes\r\nFormat settings, ReFrames      : 3 frames\r\nFormat settings, GOP           : M=4, N=33\r\nMuxing mode                    : Header stripping\r\nCodec ID                       : V_MPEG4/ISO/AVC\r\nDuration                       : 1h 56mn\r\nBit rate mode                  : Variable\r\nBit rate                       : 3 527 Kbps\r\nMaximum bit rate               : 8 000 Kbps\r\nWidth                          : 1 280 pixels\r\nHeight                         : 688 pixels\r\nDisplay aspect ratio           : 1.85:1\r\nFrame rate mode                : Constant\r\nFrame rate                     : 29.970 fps\r\nStandard                       : NTSC\r\nColor space                    : YUV\r\nChroma subsampling             : 4:2:0\r\nBit depth                      : 8 bits\r\nScan type                      : Progressive\r\nBits/(Pixel*Frame)             : 0.134\r\nStream size                    : 2.88 GiB (91%)\r\nLanguage                       : English\r\nDefault                        : Yes\r\nForced                         : No\r\nColor primaries                : BT.709\r\nTransfer characteristics       : BT.709\r\nMatrix coefficients            : BT.709\r\nColor range                    : Limited\r\n\r\nAudio\r\nID                             : 2\r\nFormat                         : AC-3\r\nFormat/Info                    : Audio Coding 3\r\nMode extension                 : CM (complete main)\r\nFormat settings, Endianness    : Big\r\nMuxing mode                    : Header stripping\r\nCodec ID                       : A_AC3\r\nDuration                       : 1h 56mn\r\nBit rate mode                  : Constant\r\nBit rate                       : 256 Kbps\r\nChannel(s)                     : 2 channels\r\nChannel positions              : Front: L R\r\nSampling rate                  : 48.0 KHz\r\nBit depth                      : 16 bits\r\nCompression mode               : Lossy\r\nStream size                    : 214 MiB (7%)\r\nLanguage                       : English\r\nDefault                        : Yes\r\nForced                         : No\r\n\r\nnot true hd","torrent":{"xt":"urn:btih:83d711906b797388bcc3041059bd04dd18a7dad3","amp;dn":"Gods+of+Egypt+2016+720p+HD-TS+X264+AC3+HQ+Hive-CM8+++","amp;tr":["udp%3A%2F%2Ftracker.leechers-paradise.org%3A6969","udp%3A%2F%2Fzer0day.ch%3A1337","udp%3A%2F%2Fopen.demonii.com%3A1337","udp%3A%2F%2Ftracker.coppersurfer.tk%3A6969","udp%3A%2F%2Fexodus.desync.com%3A6969"],"infoHash":"83d711906b797388bcc3041059bd04dd18a7dad3","infoHashBuffer":{"type":"Buffer","data":[131,215,17,144,107,121,115,136,188,195,4,16,89,189,4,221,24,167,218,211]},"announce":[],"urlList":[]}}